<svg width="100" height="100" viewBox="0 0 100 100" fill="none" xmlns="http://www.w3.org/2000/svg">
<path d="M63.8833 36.1167C67.4928 36.0084 70.9181 34.4984 73.4329 31.907C75.9477 29.3156 77.3542 25.8466 77.3542 22.2355C77.3542 18.6244 75.9477 15.1554 73.4329 12.564C70.9181 9.97255 67.4928 8.46257 63.8833 8.35425H36.1167C32.5072 8.46257 29.0819 9.97255 26.5671 12.564C24.0523 15.1554 22.6458 18.6244 22.6458 22.2355C22.6458 25.8466 24.0523 29.3156 26.5671 31.907C29.0819 34.4984 32.5072 36.0084 36.1167 36.1167C32.4757 36.1798 29.0051 37.6705 26.4526 40.2676C23.9 42.8648 22.4697 46.3606 22.4697 50.0022C22.4697 53.6437 23.9 57.1395 26.4526 59.7367C29.0051 62.3339 32.4757 63.8245 36.1167 63.8876C32.4935 63.9764 29.0485 65.478 26.5173 68.072C23.9862 70.6659 22.5693 74.1466 22.5693 77.7709C22.5693 81.3952 23.9862 84.8759 26.5173 87.4698C29.0485 90.0638 32.4935 91.5655 36.1167 91.6543C39.7988 91.652 43.3294 90.188 45.9327 87.584C48.536 84.9799 49.9989 81.4489 50 77.7667V36.1167H63.8833Z" fill="white" fill-opacity="0.5"/>
<path d="M63.8833 63.8834C71.5509 63.8834 77.7667 57.6676 77.7667 50C77.7667 42.3325 71.5509 36.1167 63.8833 36.1167C56.2158 36.1167 50 42.3325 50 50C50 57.6676 56.2158 63.8834 63.8833 63.8834Z" fill="white" fill-opacity="0.5"/>
</svg>
