<svg width="879" height="880" viewBox="0 0 879 880" fill="none" xmlns="http://www.w3.org/2000/svg">
<g filter="url(#filter0_d_4_6748)">
<circle cx="439.5" cy="439.972" r="254" stroke="#00C4F0" stroke-width="67" shape-rendering="crispEdges"/>
</g>
<circle cx="216" cy="229" r="45" fill="url(#paint0_linear_4_6748)"/>
<path d="M185 395C185 419.853 164.853 440 140 440C115.147 440 95 419.853 95 395C95 370.147 115.147 350 140 350C164.853 350 185 370.147 185 395Z" fill="url(#paint1_linear_4_6748)"/>
<circle cx="614" cy="197" r="45" fill="url(#paint2_linear_4_6748)"/>
<circle cx="171" cy="583" r="45" fill="url(#paint3_linear_4_6748)"/>
<path d="M116.109 383.793V397.469C116.109 398.576 116.232 399.666 116.479 400.686C117.656 405.572 121.541 409.018 127.025 409.018C132.51 409.018 136.377 405.572 137.555 400.686C137.783 399.666 137.924 398.576 137.924 397.469V383.793H132.668V397.557C132.668 398.365 132.562 399.156 132.352 399.912C131.701 402.268 129.961 404.148 127.008 404.148C124.09 404.148 122.35 402.268 121.682 399.912C121.471 399.156 121.365 398.365 121.365 397.557V383.793H116.109ZM139.998 409H146.484L152.672 399.93L158.859 409H165.363L155.713 395.693L164.326 383.811H157.875L152.672 391.422L147.469 383.811H141.018L149.631 395.693L139.998 409Z" fill="#00C4F0"/>
<path d="M196.055 227.795V233.104L211.102 240.451V234.949L201.135 230.449L211.102 225.967V220.465L196.055 227.795ZM230.314 212.977L214.266 248.045H219.803L235.852 212.977H230.314Z" fill="#00C4F0"/>
<path d="M598.109 185.793V199.469C598.109 200.576 598.232 201.666 598.479 202.686C599.656 207.572 603.541 211.018 609.025 211.018C614.51 211.018 618.377 207.572 619.555 202.686C619.783 201.666 619.924 200.576 619.924 199.469V185.793H614.668V199.557C614.668 200.365 614.562 201.156 614.352 201.912C613.701 204.268 611.961 206.148 609.008 206.148C606.09 206.148 604.35 204.268 603.682 201.912C603.471 201.156 603.365 200.365 603.365 199.557V185.793H598.109ZM624.424 211H629.697V185.793H624.424V211Z" fill="#00C4F0"/>
<path d="M155.629 582.023V576.662H162.01C163.047 576.662 163.521 576.75 163.943 576.926C164.963 577.33 165.719 578.174 165.719 579.352C165.719 580.564 164.928 581.373 163.943 581.777C163.504 581.953 163.029 582.023 162.027 582.023H155.629ZM155.629 597V586.857H162.713C164.857 586.857 166.316 586.436 167.512 585.68C169.586 584.379 170.904 582.111 170.904 579.352C170.904 576.486 169.586 574.254 167.547 572.988C166.334 572.215 164.857 571.811 162.713 571.811H150.373V597H155.629ZM172.891 592.641C176.389 595.77 180.273 597 183.631 597C189.045 597 193.246 593.73 193.246 589.283C193.246 583.57 188.113 582.146 183.877 581.443C180.309 580.846 178.234 580.371 178.234 578.719C178.234 577.207 180.186 576.539 182.031 576.539C184.299 576.539 186.742 577.383 188.412 578.789L191.4 575.045C188.605 572.848 185.283 571.775 182.102 571.775C176.354 571.775 173.137 575.062 173.137 579.193C173.137 583.236 176.512 584.994 180.73 585.873C184.439 586.646 188.078 586.945 188.078 589.301C188.078 591.234 185.688 592.113 183.543 592.113C180.783 592.113 178.146 590.777 176.055 588.861L172.891 592.641Z" fill="#00C4F0"/>
<defs>
<filter id="filter0_d_4_6748" x="0" y="0.47229" width="879" height="879" filterUnits="userSpaceOnUse" color-interpolation-filters="sRGB">
<feFlood flood-opacity="0" result="BackgroundImageFix"/>
<feColorMatrix in="SourceAlpha" type="matrix" values="0 0 0 0 0 0 0 0 0 0 0 0 0 0 0 0 0 0 127 0" result="hardAlpha"/>
<feOffset/>
<feGaussianBlur stdDeviation="76"/>
<feComposite in2="hardAlpha" operator="out"/>
<feColorMatrix type="matrix" values="0 0 0 0 0 0 0 0 0 0.768627 0 0 0 0 0.941176 0 0 0 0.42 0"/>
<feBlend mode="normal" in2="BackgroundImageFix" result="effect1_dropShadow_4_6748"/>
<feBlend mode="normal" in="SourceGraphic" in2="effect1_dropShadow_4_6748" result="shape"/>
</filter>
<linearGradient id="paint0_linear_4_6748" x1="171" y1="184" x2="267.755" y2="267.157" gradientUnits="userSpaceOnUse">
<stop stop-color="#414141"/>
<stop offset="1" stop-color="#2D2D2D"/>
</linearGradient>
<linearGradient id="paint1_linear_4_6748" x1="95" y1="350" x2="191.755" y2="433.157" gradientUnits="userSpaceOnUse">
<stop stop-color="#414141"/>
<stop offset="1" stop-color="#2D2D2D"/>
</linearGradient>
<linearGradient id="paint2_linear_4_6748" x1="569" y1="152" x2="665.755" y2="235.157" gradientUnits="userSpaceOnUse">
<stop stop-color="#414141"/>
<stop offset="1" stop-color="#2D2D2D"/>
</linearGradient>
<linearGradient id="paint3_linear_4_6748" x1="126" y1="538" x2="222.755" y2="621.157" gradientUnits="userSpaceOnUse">
<stop stop-color="#414141"/>
<stop offset="1" stop-color="#2D2D2D"/>
</linearGradient>
</defs>
</svg>
